Coordinates
version=1
nRows=19
nColumns=34
inDegrees=yes

Units are S.I. units (second, meters, Newtons, ...)
If the header above contains a line with 'inDegrees', this indicates whether rotational values are in degrees (yes) or radians (no).

endheader
time	pelvis_tilt	pelvis_list	pelvis_rotation	pelvis_tx	pelvis_ty	pelvis_tz	hip_flexion_r	hip_adduction_r	hip_rotation_r	knee_angle_r	ankle_angle_r	subtalar_angle_r	mtp_angle_r	hip_flexion_l	hip_adduction_l	hip_rotation_l	knee_angle_l	ankle_angle_l	subtalar_angle_l	mtp_angle_l	lumbar_extension	lumbar_bending	lumbar_rotation	arm_flex_r	arm_add_r	arm_rot_r	elbow_flex_r	pro_sup_r	arm_flex_l	arm_add_l	arm_rot_l	elbow_flex_l	pro_sup_l
      5.96666670	      9.25971451	     -4.84836597	    -32.87707800	      1.23875884	      1.00482280	      0.23679947	     13.28503266	     -6.48601997	     -1.53688491	     45.52410212	      5.72968504	     -5.47697435	      0.00000000	     -1.94280924	      5.19312420	     -2.30686638	      9.62995258	      8.92134449	     -7.40169683	      0.00000000	     -8.89992073	     -2.05050328	      5.22497454	     11.40018708	    -10.19884847	     15.76792432	     17.62034989	    118.59760462	     11.43053318	    -14.22291032	      3.57497006	     26.25768649	    118.70688849
      5.98333330	      9.33325924	     -5.07621985	    -33.08757502	      1.23870586	      1.00556533	      0.23655047	     12.41705976	     -6.30380596	     -1.45913372	     44.13723306	      5.34162410	     -6.47536192	      0.00000000	     -2.44233758	      5.06115174	     -2.62768683	      9.04461933	      8.85188280	     -6.94966128	      0.00000000	     -9.19221918	     -1.64011629	      5.26917947	     10.87522748	     -9.99369830	     13.52761067	     17.82411589	    118.38425880	     11.47195376	    -14.66451937	      3.36794522	     27.58682216	    119.06429069
      6.00000000	      9.18245394	     -4.88660845	    -33.22506655	      1.23857018	      1.00522475	      0.23571718	     12.15246377	     -6.53022528	     -1.59912573	     42.95218004	      5.46652423	     -6.61450459	      0.00000000	     -2.24583299	      5.20691314	     -2.76873502	      8.84485219	      8.74463574	     -6.93525074	      0.00000000	     -8.95964100	     -1.48236459	      5.45620070	     10.41496868	    -10.06624241	     13.45594860	     17.60610590	    118.39596351	     11.93617540	    -14.91241333	      3.36175505	     28.17279217	    119.09216648
      6.01666670	      9.20987847	     -5.21313017	    -33.29175027	      1.23843139	      1.00587472	      0.23549842	     11.06824733	     -6.20783426	     -1.63556329	     41.11190356	      5.29458573	     -7.03289562	      0.00000000	     -2.71752919	      4.95067401	     -2.92285547	      8.34248047	      8.64732183	     -6.68649229	      0.00000000	     -9.17488986	     -0.94775816	      5.47145018	     10.04876717	    -10.01592095	     12.73002187	     17.54716314	    118.33989303	     12.03657476	    -15.30702865	      3.69000726	     29.32667353	    119.27472686
      6.03333330	      9.09370737	     -5.00113159	    -33.33440648	      1.23786232	      1.00557494	      0.23483599	     10.66853855	     -6.36250596	     -1.72840093	     39.59496221	      5.40020722	     -7.12600833	      0.00000000	     -2.49355138	      5.10084167	     -3.07153449	      8.18996155	      8.48046987	     -6.65081812	      0.00000000	     -8.93461013	     -0.87830502	      5.67362061	      9.62052481	    -10.03464195	     12.63781928	     17.26224030	    118.33829586	     12.63556967	    -15.42416319	      3.65793937	     29.65526688	    119.29082418
      6.05000000	      9.30526436	     -5.72445043	    -33.20066114	      1.23763325	      1.00711109	      0.23474269	      8.82066804	     -5.68972169	     -1.89404239	     37.07568534	      4.96780453	     -7.60985170	      0.00000000	     -3.39250885	      4.55192002	     -3.15502592	      7.66957921	      8.48888079	     -6.23252049	      0.00000000	     -9.52882138	     -0.10170929	      5.81660673	      9.31119796	    -10.03190102	     11.68708625	     17.09994565	    118.24529628	     13.36129747	    -15.47907873	      4.30706994	     29.68017492	    119.56963929
      6.06666670	      9.17326000	     -5.41860222	    -33.28317325	      1.23700162	      1.00667056	      0.23455314	      8.41644238	     -5.84517611	     -1.90662652	     35.38143643	      4.98443952	     -7.55588046	      0.00000000	     -3.10642828	      4.76150892	     -3.33291776	      7.53379118	      8.30648080	     -6.21722543	      0.00000000	     -9.14128286	     -0.15271512	      5.99040540	      9.01215766	    -10.00604149	     11.62052998	     16.89671826	    118.24874531	     13.89185080	    -15.55298275	      4.32751306	     29.90591242	    119.59308634
      6.08333330	      9.37387483	     -5.94350376	    -33.20881379	      1.23674081	      1.00776818	      0.23479304	      6.66701903	     -5.29400201	     -1.91006662	     32.78630023	      4.62638123	     -7.75579808	      0.00000000	     -3.83140687	      4.36861604	     -3.54894824	      7.12294579	      8.29088054	     -5.85886755	      0.00000000	     -9.51979271	      0.41519543	      6.31151312	      8.77703773	    -10.04713207	     10.87669018	     16.73113527	    118.20334066	     14.87993197	    -15.44430798	      5.31079645	     29.46102851	    119.74817918
      6.10000000	      9.26730221	     -5.53764031	    -33.28011821	      1.23608955	      1.00716589	      0.23480914	      6.21719747	     -5.49043258	     -1.71378207	     30.96192939	      4.67741300	     -7.56372060	      0.00000000	     -3.46657513	      4.66283012	     -3.70135103	      7.09173425	      8.13299953	     -5.86676760	      0.00000000	     -9.08991686	      0.24095807	      6.41866907	      8.68062336	     -9.96600592	     10.83097241	     16.62583685	    118.20736720	     15.39962728	    -15.39408122	      5.36404738	     29.65664773	    119.74817918
      6.11666670	      9.33502766	     -5.89341873	    -33.27043026	      1.23552486	      1.00791816	      0.23516169	      4.65555002	     -4.98269795	     -1.45476704	     28.27743475	      4.55689930	     -7.27060807	      0.00000000	     -3.85653561	      4.33313094	     -4.03035497	      6.84195097	      8.01073941	     -5.70486963	      0.00000000	     -9.27199871	      0.71178190	      6.66226621	      8.71946601	    -10.01877994	     10.34279375	     16.39993303	    118.17171177	     16.32097134	    -15.22198117	      6.22424568	     29.13683334	    119.74817918
      6.13333330	      9.31563793	     -5.63929098	    -33.17996967	      1.23471875	      1.00779739	      0.23531106	      3.79038159	     -5.01116205	     -1.11185408	     26.09977452	      4.92260505	     -7.16867847	      0.00000000	     -3.60123258	      4.48759797	     -4.22072985	      6.87189872	      7.70086915	     -5.59858112	      0.00000000	     -9.05093783	      0.60167441	      6.68922433	      8.76035603	     -9.94660079	     10.17444485	     16.41433523	    118.17099940	     16.94622358	    -15.14685077	      6.62867480	     29.30557135	    119.74817918
      6.15000000	      9.28465821	     -5.55626385	    -33.04369680	      1.23417217	      1.00787904	      0.23561876	      2.68254330	     -4.83495963	     -0.49874038	     23.72618855	      5.29129399	     -6.67590322	      0.00000000	     -3.45357112	      4.47687930	     -4.32930544	      6.91233606	      7.55140775	     -5.54511434	      0.00000000	     -8.92806812	      0.67532515	      6.67175981	      8.84492048	     -9.85647888	      9.94665791	     16.36030409	    118.15285125	     17.48169096	    -15.06063893	      7.23821152	     29.47834623	    119.74817918
      6.16666670	      9.54643221	     -5.68350578	    -32.69311879	      1.23362115	      1.00851548	      0.23603913	      1.02701943	     -4.62510890	      0.05773693	     21.15663983	      5.49778420	     -5.95079915	      0.00000000	     -3.80811937	      4.41898219	     -4.04547515	      6.78212833	      7.55654640	     -5.20626814	      0.00000000	     -9.29253578	      0.72745226	      6.59823752	      8.94262327	     -9.69051599	      9.43258433	     16.33331038	    118.11489352	     18.14690190	    -15.14407673	      8.80557229	     29.71495994	    119.74817918
      6.18333330	      9.40406441	     -5.46502953	    -32.49386645	      1.23312273	      1.00836475	      0.23611840	      0.68527561	     -4.56900306	      0.70676243	     19.96433392	      5.94366991	     -5.54007606	      0.00000000	     -3.44943770	      4.46964626	     -3.95255904	      6.87317676	      7.28902353	     -5.09865329	      0.00000000	     -9.08002896	      0.73972323	      6.57481443	      8.95400343	     -9.66659285	      9.37343728	     16.28070253	    118.11725921	     18.47479638	    -14.87297641	      9.01881597	     29.90657800	    119.74817918
      6.20000000	      9.23688963	     -5.58956604	    -32.29345031	      1.23315118	      1.00853485	      0.23646701	      0.28203662	     -4.16803320	      1.42649361	     19.14108183	      6.76644193	     -5.08971433	      0.00000000	     -3.35998970	      4.20433040	     -3.75861305	      6.90913639	      7.23500540	     -5.06336406	      0.00000000	     -8.99224835	      1.13569062	      6.54816525	      8.95164996	     -9.73677513	      9.28642257	     16.13843585	    118.11375879	     18.56797324	    -14.55125016	      9.37977801	     30.06393606	    119.74817918
      6.21666670	      9.19390806	     -6.05725082	    -32.11254402	      1.23329411	      1.00915936	      0.23750139	     -0.30965364	     -3.52679113	      1.91521106	     18.65748655	      7.64128214	     -4.39889464	      0.00000000	     -3.68852785	      3.68450532	     -3.52434596	      6.84217029	      7.57716638	     -5.30491141	      0.00000000	     -9.11946982	      1.74326813	      6.55626662	      8.97632730	     -9.78409020	      9.12553932	     15.97750279	    118.10824617	     18.58707770	    -14.30925182	     10.04029991	     30.26396427	    119.74817918
      6.23333330	      9.21704683	     -6.21364291	    -31.82933951	      1.23346562	      1.00955925	      0.23765045	     -0.42416796	     -3.26595449	      2.16150764	     18.83718406	      8.28580340	     -4.35656819	      0.00000000	     -3.77968810	      3.50223829	     -3.38637904	      6.88654916	      7.38513956	     -5.18767000	      0.00000000	     -9.19577717	      2.10608844	      6.45105390	      9.06031397	    -10.04142440	      9.05425595	     15.92302201	    118.09983215	     18.57884381	    -13.83776912	     10.27195150	     30.42486689	    119.74817918
      6.25000000	      9.24585317	     -6.50289922	    -31.66739988	      1.23333324	      1.00988814	      0.23923448	     -0.69593275	     -2.78627039	      2.50071560	     18.92925398	      9.41907571	     -4.11668874	      0.00000000	     -3.98418449	      3.13204276	     -3.01030718	      6.97893782	      7.58410554	     -5.19937607	      0.00000000	     -9.34704838	      2.42737684	      6.33157228	      9.22033407	    -10.03589168	      8.96895754	     15.90520097	    118.09641924	     18.53413098	    -13.59150880	     10.60718807	     30.54855432	    119.74817918
      6.26666670	      9.51531300	     -6.95961929	    -31.19591758	      1.23412251	      1.01076093	      0.24051541	     -1.40370672	     -2.46290235	      1.68569499	     18.95796466	     10.45601060	     -2.58827374	      0.00000000	     -4.50043417	      2.76224959	     -2.38712261	      7.11582251	      7.60466116	     -5.59897094	      0.00000000	     -9.69611403	      2.82781612	      6.08261962	      9.37455712	    -10.16258772	      8.62043165	     15.77124281	    118.14219705	     18.50788586	    -13.39387811	     11.87707639	     30.72012846	    119.74817918
